<svg width="1440" height="668" viewBox="0 0 1440 668" fill="none" xmlns="http://www.w3.org/2000/svg">
<path d="M934.893 419.235C858.245 578.809 616.925 485.708 587.273 419.235C557.621 352.763 337.88 353.326 228.737 531.017C119.594 708.709 -5.3752 710.818 -66.4955 545.781C-127.616 380.744 -411.934 436.108 -115.064 271.071C181.806 106.035 -384.102 287.944 -152.173 41.18C79.7567 -205.584 -142.896 -208.22 119.048 -197.675C380.992 -187.13 237.469 -299.439 302.955 -415.439C368.441 -531.439 557.167 37.7032 729.159 -231.421C901.151 -500.545 819.932 -606.851 1024.39 -263.383C1228.85 80.0845 1061.5 -558.857 1254.14 -415.439C1446.78 -272.021 1516.63 -286.458 1372.01 -155.167C1227.4 -23.8759 1632.32 -55.8384 1638.87 70.7073C1645.42 197.253 1404.76 104.453 1468.06 402.362C1531.36 700.272 1011.54 259.662 934.893 419.235Z" fill="#EF6350" stroke="black"/>
</svg>
